<?xml version="1.0" encoding="UTF-8"?>
<svg xmlns="http://www.w3.org/2000/svg" onmouseup="{ if(window.parent.document.onmouseup) window.parent.document.onmouseup(arguments[0]);}" width="243px" height="40px" viewBox="0 0 243 40" version="1.1" xmlns:xlink="http://www.w3.org/1999/xlink"><title/><g id="p-028-WBT-Chromebook-Launch-Q4-2021-(NEW-BPs)" stroke="none" stroke-width="1" fill="none" fill-rule="evenodd"><g id="-button-CTA"><rect data-cppathid="10000" id="Rectangle" fill="#FFFFFF" x="0" y="0" width="243" height="40" rx="20"/><g id="Kurs-beenden" transform="translate(77.548917, 14.472656)" fill="#000000" fill-rule="nonzero"><polygon data-cppathid="10001" id="Path" points="2.76171875 6.2890625 1.640625 7.66992188 1.640625 10.5273438 0 10.5273438 0 0.62890625 1.640625 0.62890625 1.640625 5.55078125 5.4140625 0.62890625 7.36914062 0.62890625 3.81445312 5.00390625 7.58789062 10.5273438 5.6328125 10.5273438"/><path data-cppathid="10002" d="M14.4822443,3.10351562 L14.4822443,10.5273438 L13.0056818,10.5273438 L13.0056818,9.52929688 C12.4588068,10.313151 11.7250829,10.7050781 10.8045099,10.7050781 C10.1118016,10.7050781 9.57404119,10.4954427 9.19122869,10.0761719 C8.80841619,9.65690104 8.61700994,9.06445312 8.61700994,8.29882812 L8.61700994,3.10351562 L10.2302912,3.10351562 L10.2302912,8.08007812 C10.2302912,8.82747396 10.6222183,9.20117188 11.4060724,9.20117188 C11.6886245,9.20117188 11.9461115,9.14648438 12.1785334,9.03710938 C12.4109553,8.92773438 12.6410985,8.75 12.8689631,8.50390625 L12.8689631,3.10351562 L14.4822443,3.10351562 Z" id="Path"/><path data-cppathid="10003" d="M20.3512074,2.953125 C20.6702178,2.953125 20.9527699,3.01236979 21.1988636,3.13085938 L20.8707386,4.66210938 C20.5973011,4.57096354 20.3010772,4.52539062 19.9820668,4.52539062 C19.6539418,4.52539062 19.375947,4.58463542 19.1480824,4.703125 C18.9202178,4.82161458 18.719697,5.01302083 18.5465199,5.27734375 L18.5465199,10.5273438 L16.9332386,10.5273438 L16.9332386,3.10351562 L18.3961293,3.10351562 L18.3961293,4.23828125 C18.8518584,3.38151042 19.5035511,2.953125 20.3512074,2.953125 Z" id="Path"/><path data-cppathid="10004" d="M24.7572798,10.6914062 C24.2559777,10.6914062 23.7706262,10.6276042 23.3012251,10.5 C22.8318241,10.3723958 22.4193892,10.1946615 22.0639205,9.96679688 L22.6244673,8.65429688 C23.2989465,9.06445312 24.009884,9.26953125 24.7572798,9.26953125 C25.6322798,9.26953125 26.0697798,8.99609375 26.0697798,8.44921875 C26.0697798,8.23046875 25.9945845,8.05273438 25.8441939,7.91601562 C25.6938033,7.77929688 25.4545455,7.66992188 25.1264205,7.58789062 L24.1557173,7.35546875 C23.4721236,7.20052083 22.9731001,6.95670573 22.658647,6.62402344 C22.3441939,6.29134115 22.1869673,5.83789062 22.1869673,5.26367188 C22.1869673,4.53450521 22.4262251,3.96484375 22.9047408,3.5546875 C23.3832564,3.14453125 24.0600142,2.93945312 24.9350142,2.93945312 C25.3725142,2.93945312 25.8100142,2.99414062 26.2475142,3.10351562 C26.6850142,3.21289062 27.0814986,3.36328125 27.4369673,3.5546875 L26.821733,4.85351562 C26.1837121,4.52539062 25.5456913,4.36132812 24.9076705,4.36132812 C24.1238163,4.36132812 23.7318892,4.61197917 23.7318892,5.11328125 C23.7318892,5.31380208 23.8093632,5.48014323 23.9643111,5.61230469 C24.119259,5.74446615 24.3607955,5.8515625 24.6889205,5.93359375 L25.6596236,6.16601562 C26.3523319,6.33007812 26.853634,6.58072917 27.1635298,6.91796875 C27.4734257,7.25520833 27.6283736,7.71549479 27.6283736,8.29882812 C27.6283736,9.05533854 27.3777225,9.64322917 26.8764205,10.0625 C26.3751184,10.4817708 25.6687382,10.6914062 24.7572798,10.6914062 Z" id="Path"/><path data-cppathid="10005" d="M36.2627841,2.92578125 C37.1195549,2.92578125 37.7849195,3.26757812 38.2588778,3.95117188 C38.7328362,4.63476562 38.9698153,5.59179688 38.9698153,6.82226562 C38.9698153,8.05273438 38.7282789,9.00748698 38.245206,9.68652344 C37.762133,10.3655599 37.0830966,10.7050781 36.2080966,10.7050781 C35.7797112,10.7050781 35.3900627,10.6162109 35.0391513,10.4384766 C34.6882398,10.2607422 34.4034091,10.0123698 34.1846591,9.69335938 L34.1846591,10.5273438 L32.7217685,10.5273438 L32.7217685,0 L34.3350497,0 L34.3350497,3.91015625 C34.7998935,3.25390625 35.4424716,2.92578125 36.2627841,2.92578125 Z M35.8252841,9.25585938 C36.8187737,9.25585938 37.3155185,8.46289062 37.3155185,6.87695312 C37.3155185,5.25455729 36.7959872,4.44335938 35.7569247,4.44335938 C35.4834872,4.44335938 35.2351148,4.49804688 35.0118075,4.60742188 C34.7885002,4.71679688 34.5629143,4.89453125 34.3350497,5.140625 L34.3350497,8.57226562 C34.526456,8.79101562 34.7520419,8.95963542 35.0118075,9.078125 C35.2715732,9.19661458 35.542732,9.25585938 35.8252841,9.25585938 Z" id="Shape"/><path data-cppathid="10006" d="M46.8075284,6.5078125 C46.8075284,6.79036458 46.784742,7.05924479 46.739169,7.31445312 L42.1044034,7.31445312 C42.2320076,8.59049479 42.8928149,9.22851562 44.0868253,9.22851562 C44.7339607,9.22851562 45.3400805,9.06901042 45.9051847,8.75 L46.4930753,9.96679688 C46.1558357,10.1946615 45.76163,10.3723958 45.3104581,10.5 C44.8592862,10.6276042 44.3967211,10.6914062 43.9227628,10.6914062 C42.8198982,10.6914062 41.9676847,10.351888 41.3661222,9.67285156 C40.7645597,8.9938151 40.4637784,8.04361979 40.4637784,6.82226562 C40.4637784,5.58268229 40.7463305,4.6233724 41.3114347,3.94433594 C41.8765388,3.26529948 42.6695076,2.92578125 43.6903409,2.92578125 C44.6747159,2.92578125 45.4403409,3.24023438 45.9872159,3.86914062 C46.5340909,4.49804688 46.8075284,5.37760417 46.8075284,6.5078125 Z M43.6493253,4.34765625 C42.7469815,4.34765625 42.2320076,4.95833333 42.1044034,6.1796875 L45.1942472,6.1796875 C45.176018,5.59635417 45.0324633,5.14518229 44.7635831,4.82617188 C44.4947029,4.50716146 44.1232836,4.34765625 43.6493253,4.34765625 Z" id="Shape"/><path data-cppathid="10007" d="M54.5632102,6.5078125 C54.5632102,6.79036458 54.5404238,7.05924479 54.4948509,7.31445312 L49.8600852,7.31445312 C49.9876894,8.59049479 50.6484967,9.22851562 51.8425071,9.22851562 C52.4896425,9.22851562 53.0957623,9.06901042 53.6608665,8.75 L54.2487571,9.96679688 C53.9115175,10.1946615 53.5173118,10.3723958 53.0661399,10.5 C52.614968,10.6276042 52.1524029,10.6914062 51.6784446,10.6914062 C50.57558,10.6914062 49.7233665,10.351888 49.121804,9.67285156 C48.5202415,8.9938151 48.2194602,8.04361979 48.2194602,6.82226562 C48.2194602,5.58268229 48.5020123,4.6233724 49.0671165,3.94433594 C49.6322206,3.26529948 50.4251894,2.92578125 51.4460227,2.92578125 C52.4303977,2.92578125 53.1960227,3.24023438 53.7428977,3.86914062 C54.2897727,4.49804688 54.5632102,5.37760417 54.5632102,6.5078125 Z M51.4050071,4.34765625 C50.5026634,4.34765625 49.9876894,4.95833333 49.8600852,6.1796875 L52.949929,6.1796875 C52.9316998,5.59635417 52.7881451,5.14518229 52.5192649,4.82617188 C52.2503847,4.50716146 51.8789654,4.34765625 51.4050071,4.34765625 Z" id="Shape"/><path data-cppathid="10008" d="M60.1724077,2.92578125 C60.8833452,2.92578125 61.4347775,3.13769531 61.8267045,3.56152344 C62.2186316,3.98535156 62.4145952,4.58007812 62.4145952,5.34570312 L62.4145952,10.5273438 L60.8013139,10.5273438 L60.8013139,5.55078125 C60.8013139,4.8125 60.395715,4.44335938 59.584517,4.44335938 C59.0467566,4.44335938 58.5454545,4.63020833 58.0806108,5.00390625 L58.0806108,10.5273438 L56.4673295,10.5273438 L56.4673295,3.10351562 L57.9302202,3.10351562 L57.9302202,4.00585938 C58.5317827,3.28580729 59.2791785,2.92578125 60.1724077,2.92578125 Z" id="Path"/><path data-cppathid="10009" d="M70.5804332,0 L70.5804332,10.5273438 L69.1175426,10.5273438 L69.1175426,9.48828125 C68.6344697,10.2994792 67.9417614,10.7050781 67.0394176,10.7050781 C66.1826468,10.7050781 65.5172822,10.3632812 65.0433239,9.6796875 C64.5693655,8.99609375 64.3323864,8.0390625 64.3323864,6.80859375 C64.3323864,5.578125 64.5739228,4.6233724 65.0569957,3.94433594 C65.5400687,3.26529948 66.2191051,2.92578125 67.0941051,2.92578125 C67.4769176,2.92578125 67.8301077,2.99641927 68.1536754,3.13769531 C68.4772431,3.27897135 68.748402,3.48177083 68.967152,3.74609375 L68.967152,0 L70.5804332,0 Z M67.545277,9.1875 C67.8187145,9.1875 68.0670869,9.1328125 68.2903942,9.0234375 C68.5137015,8.9140625 68.7392874,8.73632812 68.967152,8.49023438 L68.967152,5.05859375 C68.7757457,4.83984375 68.5501598,4.67122396 68.2903942,4.55273438 C68.0306286,4.43424479 67.7594697,4.375 67.4769176,4.375 C66.483428,4.375 65.9866832,5.16796875 65.9866832,6.75390625 C65.9866832,8.37630208 66.5062145,9.1875 67.545277,9.1875 Z" id="Shape"/><path data-cppathid="10010" d="M78.8829901,6.5078125 C78.8829901,6.79036458 78.8602036,7.05924479 78.8146307,7.31445312 L74.1798651,7.31445312 C74.3074692,8.59049479 74.9682765,9.22851562 76.1622869,9.22851562 C76.8094223,9.22851562 77.4155421,9.06901042 77.9806463,8.75 L78.5685369,9.96679688 C78.2312973,10.1946615 77.8370916,10.3723958 77.3859197,10.5 C76.9347479,10.6276042 76.4721828,10.6914062 75.9982244,10.6914062 C74.8953598,10.6914062 74.0431463,10.351888 73.4415838,9.67285156 C72.8400213,8.9938151 72.5392401,8.04361979 72.5392401,6.82226562 C72.5392401,5.58268229 72.8217921,4.6233724 73.3868963,3.94433594 C73.9520005,3.26529948 74.7449692,2.92578125 75.7658026,2.92578125 C76.7501776,2.92578125 77.5158026,3.24023438 78.0626776,3.86914062 C78.6095526,4.49804688 78.8829901,5.37760417 78.8829901,6.5078125 Z M75.7247869,4.34765625 C74.8224432,4.34765625 74.3074692,4.95833333 74.1798651,6.1796875 L77.2697088,6.1796875 C77.2514796,5.59635417 77.107925,5.14518229 76.8390447,4.82617188 C76.5701645,4.50716146 76.1987453,4.34765625 75.7247869,4.34765625 Z" id="Shape"/><path data-cppathid="10011" d="M84.4921875,2.92578125 C85.203125,2.92578125 85.7545573,3.13769531 86.1464844,3.56152344 C86.5384115,3.98535156 86.734375,4.58007812 86.734375,5.34570312 L86.734375,10.5273438 L85.1210938,10.5273438 L85.1210938,5.55078125 C85.1210938,4.8125 84.7154948,4.44335938 83.9042969,4.44335938 C83.3665365,4.44335938 82.8652344,4.63020833 82.4003906,5.00390625 L82.4003906,10.5273438 L80.7871094,10.5273438 L80.7871094,3.10351562 L82.25,3.10351562 L82.25,4.00585938 C82.8515625,3.28580729 83.5989583,2.92578125 84.4921875,2.92578125 Z" id="Path"/></g></g></g></svg>